<svg width="167" height="158" viewBox="0 0 167 158" fill="none" xmlns="http://www.w3.org/2000/svg">
    <path fill-rule="evenodd" clip-rule="evenodd" d="M122.787 39.0861C125.348 49.3484 126.368 59.0753 125.989 66.9489C157.58 88.0071 174.229 101.18 158.794 113.731L158.183 113.677L166.484 127.488C168.328 130.555 164.882 134.182 161.663 132.618C114.25 109.581 76.6757 110.208 8.89105 157.086C6.03458 159.062 2.22655 156.206 3.42722 152.947L14.5075 122.873C6.48041 122.789 0 116.448 0 108.637C0 102.186 4.42115 96.7376 10.4833 94.9891C13.705 93.9225 16.958 94.4507 21.342 95.1626C26.7673 96.0435 33.9245 97.2057 44.8981 95.9748C62.8733 93.9586 76.9014 79.8058 82.3059 72.97C76.9007 69.9792 71.1884 66.1304 65.5615 61.5646C46.4292 46.0402 35.5282 28.1054 41.2135 21.5061C46.8988 14.9068 67.0174 22.142 86.1497 37.6664C87.6272 38.8653 89.0557 40.0786 90.4312 41.2999C86.0821 19.961 88.578 2.03627 96.5614 0.159975C105.176 -1.86463 116.917 15.5632 122.787 39.0861ZM135.005 99.4321C139.294 99.4321 142.771 96.0577 142.771 91.8952C142.771 87.7326 139.294 84.3583 135.005 84.3583C130.716 84.3583 127.239 87.7326 127.239 91.8952C127.239 96.0577 130.716 99.4321 135.005 99.4321Z" fill="white"/>
</svg>
